<?xml version="1.0" encoding="UTF-8" standalone="no"?>
<!DOCTYPE svg PUBLIC "-//W3C//DTD SVG 1.1//EN" "http://www.w3.org/Graphics/SVG/1.1/DTD/svg11.dtd">
<svg xmlns="http://www.w3.org/2000/svg" xmlns:xl="http://www.w3.org/1999/xlink" version="1.1" viewBox="0 0 576 734" width="48pc" height="734pt" xmlns:dc="http://purl.org/dc/elements/1.1/"><metadata> Produced by OmniGraffle 6.6.1 <dc:date>2016-09-30 13:39:32 +0000</dc:date></metadata><defs/><g stroke="none" stroke-opacity="1" stroke-dasharray="none" fill="none" fill-opacity="1"><title>Canvas 1</title><g><title>Layer 1</title><path d="M 18.259519 13.413998 C 14.3938105 13.413998 11.013859 14.535562 8.3917897 17.696796 C 4.5947486 22.269522 4.409093 32.060954 10.4874106 36.173355 C 11.4538376 36.826965 12.2727574 37.717096 13.096764 38.556361 C 15.2483355 40.756254 15.942637 43.45462 15.70103 46.458174 C 15.507745 48.874242 14.630331 51.035987 13.310395 53.027335 C 11.4411215 55.845233 9.4523163 58.586834 7.6796856 61.468313 C 6.697999 63.060374 5.8612767 64.802486 5.2890502 66.58529 C 4.3963767 69.362496 5.6044106 70.7511 8.4553705 70.7511 L 8.536754 70.7511 C 11.535221 70.725667 13.885165 69.34215 16.214763 67.645816 C 18.854634 65.723135 21.509766 63.731787 24.41159 62.271973 C 26.471606 61.239422 28.526535 60.67991 30.553489 60.682455 C 33.073829 60.682455 35.558564 61.542066 37.961915 63.41134 C 40.95021 65.73585 44.152135 67.793324 47.308282 69.891488 C 49.95324 71.643773 52.877954 72.653435 56.06462 72.935733 C 56.34692 72.95862 56.60887 72.97134 56.858108 72.97134 C 59.543758 72.97134 60.606827 71.549673 60.052403 68.56901 C 59.297064 64.476953 57.26248 60.903716 55.48222 57.218577 C 54.12668 54.41848 52.855065 51.547176 51.881008 48.602116 C 49.958327 42.826443 50.609394 37.503464 55.169404 33.004492 C 56.58344 31.603173 57.81182 30.000938 59.07326 28.449568 C 60.431345 26.778667 61.23755 24.866159 61.517303 22.620487 C 61.173968 21.303095 61.023917 19.886516 60.449147 18.675939 C 59.070717 15.789374 56.232473 14.220201 53.22892 14.220201 C 51.296066 14.220201 49.297087 14.871268 47.58295 16.239525 C 45.019376 18.286825 42.595679 20.514693 40.047363 22.582339 C 38.897823 23.515704 37.750827 23.973485 36.631806 23.973485 C 35.350019 23.973485 34.101293 23.375826 32.913605 22.198311 C 31.494483 20.789362 30.037213 19.410932 28.699475 17.925686 C 25.996022 14.917046 22.605897 13.487751 18.623201 13.416541 C 18.501126 13.416541 18.381594 13.413998 18.259519 13.413998 Z" fill="#141313"/><path d="M 103.989763 18.912456 L 103.888034 18.912456 C 99.951115 18.927715 98.036064 21.463315 98.40229 25.410406 C 98.760884 29.31172 100.65559 32.46278 102.92161 35.512113 C 108.598094 43.146887 108.5218 45.629078 102.54012 53.090913 C 101.60167 54.26334 100.571663 55.359473 99.668817 56.557334 C 98.203917 58.50036 96.634744 60.395067 95.421624 62.488144 C 92.71817 67.157513 93.99233 71.979476 98.50402 74.939794 C 100.808184 76.450473 103.28529 77.004896 105.82343 77.004896 C 107.077243 77.004896 108.34886 76.870105 109.61793 76.648844 C 122.713016 74.372654 132.96986 61.98713 133.75572 48.14179 C 132.93934 45.19673 132.588375 42.020236 131.225204 39.352389 C 126.68045 30.446 119.53398 24.093014 110.44702 20.039106 C 108.50654 19.174409 106.156594 18.912456 103.989763 18.912456 Z" fill="#141313"/><path d="M 224.72062 18.912456 C 222.6428 18.912456 220.53955 19.110828 218.44393 19.517744 C 205.06146 22.127098 192.90737 36.14792 196.32547 52.193153 C 199.67999 67.951 213.03957 78.73429 230.80148 78.73429 C 230.8498 78.73429 230.90067 78.73429 230.94644 78.73175 C 232.00951 78.68343 233.64227 78.711403 235.25213 78.51812 C 243.77704 77.485567 251.02778 74.225147 254.74853 65.95711 C 258.13102 58.431694 258.84313 50.48156 256.51607 42.49582 C 252.3935 28.307144 239.06698 18.912456 224.72062 18.912456 Z" fill="#141313"/><path d="M 368.21797 23.810712 C 364.62185 23.810712 360.92145 24.978054 358.04505 26.519251 C 351.92096 28.474994 348.94538 29.428705 345.8808 29.428705 C 342.97134 29.428705 339.98813 28.569094 334.17685 26.890562 C 331.18093 25.412946 327.28216 24.143875 323.53598 24.143875 C 318.96834 24.143875 314.62705 26.033494 312.42461 31.735414 C 309.77457 39.838142 310.09501 43.937828 310.3595 47.910352 C 310.83764 51.887962 311.2649 55.73841 313.70894 63.53595 C 315.8834 69.443873 320.22724 71.49626 324.8203 71.49626 C 327.99935 71.49626 331.29537 70.509486 334.06495 69.14377 C 339.7567 67.54408 342.7577 66.745507 345.5934 66.745507 C 348.77498 66.745507 351.74293 67.752625 358.04505 69.77195 C 360.6366 71.1987 363.7775 72.106634 366.86752 72.106634 C 371.76832 72.106634 376.54196 69.815184 378.78509 63.635137 C 381.2571 55.781646 381.47583 51.880332 381.81407 47.915438 C 381.94124 43.948 382.19556 39.919525 379.7973 31.750673 C 377.54654 25.850382 372.97127 23.810712 368.21797 23.810712 Z" fill="#141313"/><path d="M 41.032977 131.39288 C 37.647939 131.39288 34.321395 132.22197 31.495867 134.15991 C 19.977582 142.05155 20.979615 142.74077 9.46133 150.62986 C 2.5513762 155.37044 4.2222778 161.507255 10.68208 165.93502 C 21.287345 173.20102 21.012677 173.39177 31.617942 180.66031 C 34.997894 182.9772 38.985677 184.24118 43.01161 184.24118 C 46.676402 184.24118 50.3768 183.19083 53.672825 180.93244 C 65.188567 173.0408 65.659064 173.37651 77.502883 165.70613 C 84.412836 160.97063 82.418944 154.69649 75.961686 150.268725 C 65.353877 142.99763 65.34879 143.00272 54.743525 135.73671 C 50.92868 133.11973 45.91852 131.39288 41.032977 131.39288 Z" fill="#141313"/><path d="M 123.01505 131.39287 C 120.509966 131.39287 118.85178 132.928984 117.56491 135.03732 C 116.95962 136.02664 116.491664 137.12023 116.097464 138.2189 C 115.50489 139.86946 115.042023 141.57088 114.49777 143.24432 C 113.67122 145.782464 112.80907 146.980325 111.54254 146.980325 C 110.599 146.980325 109.42912 146.31654 107.882833 145.050014 C 105.63462 143.21126 103.31774 141.24026 100.693125 140.136496 C 99.87166 139.78807 99.078174 139.62785 98.34064 139.62785 C 95.321825 139.62785 93.26435 142.3135 94.27147 145.82061 C 95.103107 148.71989 96.746033 151.45895 98.3915 154.0327 C 100.237887 156.92435 102.47084 159.56931 104.58172 162.28548 C 106.875715 165.23562 107.03848 168.17814 104.88945 171.29868 C 104.088336 172.46094 103.26433 173.74781 102.97949 175.09064 C 102.608176 176.83784 102.32588 178.81392 102.76077 180.495 C 103.828926 184.62775 107.0512 186.9726 110.639694 186.9726 C 112.71497 186.9726 114.91486 186.18675 116.88841 184.50313 C 119.594404 182.20151 121.6239 179.11148 123.981474 176.39277 C 124.912296 175.32207 125.746475 174.78799 126.494184 174.78799 C 127.384315 174.78799 128.14728 175.54333 128.79835 177.06418 C 129.85125 179.53112 130.873625 182.00822 131.80953 184.52347 C 133.134556 188.10688 135.66507 189.77016 138.71949 189.77016 C 138.84156 189.77016 138.96618 189.76761 139.0908 189.76253 L 139.11623 189.76253 C 143.59994 189.76253 146.247445 188.18827 147.08162 184.88716 C 147.60044 182.82968 147.71743 180.56112 147.49108 178.44516 C 147.16301 175.45941 146.30848 172.53724 145.74897 169.57437 C 145.18946 166.61151 146.29831 164.29209 148.7627 162.64662 C 151.20166 161.01641 153.81101 159.62526 156.14061 157.85517 C 158.18536 156.30635 160.19197 154.57695 161.75606 152.57034 C 163.12686 150.81297 162.83947 148.53678 161.57803 146.65479 C 160.69044 145.33231 159.431545 144.80078 158.06583 144.80078 C 157.52412 144.80078 156.96461 144.88725 156.4051 145.034755 C 153.90511 145.7138 151.48395 146.672595 149.01702 147.47117 C 145.837985 148.50626 142.69201 149.681235 139.44685 150.45692 C 138.41684 150.70107 137.544515 150.8384 136.79426 150.8384 C 134.6198 150.8384 133.43211 149.71684 132.267315 146.91929 C 130.929576 143.69702 130.17169 140.23314 129.149316 136.87608 C 128.33294 134.1828 127.09184 131.8888 123.92044 131.456455 C 123.60762 131.41322 123.304975 131.39287 123.01505 131.39287 Z" fill="#141313"/><path d="M 232.22201 143.8725 C 226.1208 144.31757 220.00688 144.6253 213.92348 145.24839 C 209.66103 145.68583 205.46215 146.60393 201.62442 148.97422 C 194.67632 153.26719 192.89606 166.30887 201.72869 171.33175 C 204.07864 172.66949 206.56592 173.94365 209.12949 174.54893 C 216.86345 176.36734 224.59741 177.29053 232.31611 177.29053 C 241.25302 177.29053 250.16958 176.05453 259.04545 173.55199 C 264.3608 172.05403 269.46252 169.77529 273.87247 166.00877 C 278.79617 161.79973 278.68935 157.23463 273.39689 153.57747 C 270.92487 151.87096 268.18327 150.53831 265.43404 149.42183 C 254.72196 145.06019 243.53684 144.12683 232.22201 143.8725 Z" fill="#141313"/><path d="M 330.28633 131.39287 C 310.53815 132.03631 310.21516 147.145635 310.21516 147.145635 C 309.89471 162.25496 312.3235 163.25954 319.325 165.83328 C 326.3316 168.40449 327.22173 171.66236 327.68969 180.4772 C 328.16019 189.24371 339.53096 199.15467 349.83613 186.61655 C 362.36916 171.36735 373.50087 131.71332 330.28633 131.39287 Z" fill="#141313"/><path d="M 57.010952 242.46311 L 56.87616 242.46311 L 56.453985 242.46311 C 47.923994 242.46311 43.600504 242.56993 39.259212 242.67674 C 34.930636 242.78356 30.589344 242.89038 22.041551 242.89038 L 21.82792 242.89038 C 7.1407713 243.27695 .2943984 254.06278 8.54972 267.16804 C 16.947463 280.05713 19.017651 278.55154 26.654969 290.79973 C 30.085785 297.13491 34.808561 300.43602 39.66613 300.43602 C 44.457573 300.43602 49.37872 297.22138 53.310553 290.54286 C 60.843598 277.74788 60.172186 277.88012 68.692003 265.86082 C 77.229623 253.70673 71.275924 242.46311 57.010952 242.46311 Z" fill="#141313"/><path d="M 130.007164 287.02812 L 129.92324 287.02812 C 123.88307 286.98743 118.98481 282.06119 118.91614 275.95744 C 118.82967 268.95593 123.888155 263.5185 130.49292 263.51342 L 130.503094 263.51342 C 136.71366 263.51342 141.474585 268.34301 141.530536 274.696 C 141.59157 281.77635 136.67297 287.02812 130.007164 287.02812 M 126.59924 242.46311 C 126.42884 242.46311 126.250815 242.46566 126.08296 242.46566 C 101.528084 242.68183 86.2153 269.3603 98.143046 290.80227 C 104.32055 301.9111 117.619095 306.87293 128.61602 306.87293 C 131.779795 306.87293 134.75537 306.46347 137.31386 305.66744 C 150.91505 301.45077 159.21361 289.61458 159.289905 271.63141 C 159.26956 263.96103 156.35756 254.78506 147.46135 248.40664 C 141.22789 243.94327 134.10431 242.46311 126.59924 242.46311" fill="#141313"/><path d="M 252.17516 240 C 237.13196 240 237.13196 240.00763 222.0913 240.00763 C 212.92296 240.00763 203.96825 245.06611 203.96825 254.87026 C 203.96825 271.20542 205.38992 271.20542 205.38992 287.54058 C 205.38992 297.34219 212.92296 302.51003 222.0913 302.51003 C 237.13196 302.51003 237.13196 302.89914 252.17516 302.89914 C 261.34096 302.89914 268.09832 297.34219 268.09832 287.54058 C 268.09832 271.20542 268.7799 271.2156 269.24277 254.88298 C 269.24277 245.07883 261.34096 240 252.17516 240 Z" fill="#141313"/></g></g></svg>
